/* XPM */
static char *_86f8877d4b044aee58541892ce93b27hgtV0Ai4JWW0gccQ[] = {
/* columns rows colors chars-per-pixel */
"32 32 11 1 ",
"  c None",
". c #2F0F32",
"X c #52133F",
"o c #6A1945",
"O c #DF2D2D",
"+ c #9E274E",
"@ c #882051",
"# c #C72C51",
"$ c #EE5858",
"% c #FEB5B5",
"& c white",
/* pixels */
"                                ",
"                                ",
"                                ",
"               &&               ",
"              &..&              ",
"             &.&&.&             ",
"             &.&&.&             ",
"            &.&%&&.&            ",
"            &.%%&%.&            ",
"           &.$%&$%%.&           ",
"           &.O$&$O$.&           ",
"          &.OOO&OOOO.&          ",
"          &.###&O###.&          ",
"         &.+@+#&&#+@+.&         ",
"         &.@o+&XX&+o@.&         ",
"        &.&Xo&Xooo&oX&.&        ",
"        &.X&X&o@@@&X&X.&        ",
"       &.+@X&@@@++@&X@+.&       ",
"       &.$+o&+####+&o+$.&       ",
"       &.%O&+#OOO##+&O%.&       ",
"       &.&$&#OO$OO##&$&.&       ",
"       &.%O&OO$%$$OO&O%.&       ",
"       &.%#&$$%&%$OO&#%.&       ",
"       &.$&X&$%&&%$&X&$.&       ",
"        &.O#@&%%%$&@#O.&        ",
"        &.&%$O&&&&O$%&.&        ",
"         &.&%&O%$+&%&.&         ",
"          &..@%&&%X..&          ",
"           &&......&&           ",
"             &&&&&&             ",
"                                ",
"                                "
};
