/* XPM */
static char *_593ae14b3dc4ede9354685b000616f4HlIEWDmonkURisFZ[] = {
/* columns rows colors chars-per-pixel */
"32 32 47 1 ",
"  c None",
". c #030402",
"X c #233B08",
"o c #343B00",
"O c #2E1E22",
"+ c #3A1A3B",
"@ c #252624",
"# c #323234",
"$ c #640A0E",
"% c #3F5A1F",
"& c #525F02",
"* c #764A00",
"= c #534721",
"- c #1B0F41",
"; c #253141",
": c #5C3C5D",
"> c #444444",
", c #474846",
"< c #545456",
"1 c #5B7C40",
"2 c #465063",
"3 c #7E5E7F",
"4 c #686967",
"5 c #6D6D6E",
"6 c #971E2A",
"7 c #C70000",
"8 c #FF2627",
"9 c #916600",
"0 c #CB3044",
"q c #FF4460",
"w c #81850B",
"e c #93AC3E",
"r c #C79D00",
"t c #E3B700",
"y c #FFD600",
"u c #FFFC00",
"i c #8B8244",
"p c #8AA456",
"a c #95A052",
"s c #81A669",
"d c #A1C563",
"f c #9F7FA0",
"g c #888A86",
"h c #AAACA8",
"j c #C09FC1",
"k c #DBBADC",
"l c #F9F7DA",
/* pixels */
"             9  9               ",
"          9 9u99uX              ",
"          u9rrr9r%X             ",
"          r**u9*u1%X X          ",
"         X7tyyytrs1%X%X         ",
"        X%1r8ttr111%11%X        ",
"        X1s11%%%%%111s1%X       ",
"       X%11%%ddddd%%1111X       ",
"       X%1%dddddddde%11%%X      ",
"       X%%dddddddddde%111X      ",
"       o%eddddddddddee%1%X      ",
"  f    oeddddddddddeoo111X      ",
"  ff  foedddddddddo&ddo1%X      ",
"  fkf ffeddi$$iddoedweo%X       ",
"  fkkfflfdi60O$aded&eo&%X       ",
"   fkkfllf$0qOpddd&eow&X        ",
"   fkkkjllfOOpdddewo&&o         ",
"    fkkflllfddddeww&&o          ",
"     fkkfkllfeeeww&&o           ",
"      fkkfkllfooo>>>#           ",
"       fk=fkllf5555<>#          ",
"        f=yfkllf5<+g<>#         ",
"         .@@fkllf+3+,<>#        ",
"         .@,@fkll3f+.5>#        ",
"         .,,;;fk3f+4.5<#        ",
"        +3.@4+:3f:4,.5<>#       ",
"         +.@+3ff:22;-55>#       ",
"           .@+++@---#55>#       ",
"            .,hg4,.##55>#       ",
"             .,,,@.##<5>#       ",
"             .gg4,. #<5#        ",
"              ....   ##         "
};
