/* XPM */
static char *b3114a6472cb45889351a67880d5408dWUSjLmbCTDmmHAPj[] = {
/* columns rows colors chars-per-pixel */
"32 32 47 1 ",
"  c None",
". c #030402",
"X c #233B08",
"o c #343B00",
"O c #2E1E22",
"+ c #3A1A3B",
"@ c #252624",
"# c #323234",
"$ c #640A0E",
"% c #3F5A1F",
"& c #525F02",
"* c #764A00",
"= c #534721",
"- c #1B0F41",
"; c #253141",
": c #5C3C5D",
"> c #444444",
", c #474846",
"< c #545456",
"1 c #5B7C40",
"2 c #465063",
"3 c #7E5E7F",
"4 c #686967",
"5 c #6D6D6E",
"6 c #971E2A",
"7 c #C70000",
"8 c #FF2627",
"9 c #916600",
"0 c #CB3044",
"q c #FF4460",
"w c #81850B",
"e c #93AC3E",
"r c #C79D00",
"t c #E3B700",
"y c #FFD600",
"u c #FFFC00",
"i c #8B8244",
"p c #8AA456",
"a c #95A052",
"s c #81A669",
"d c #A1C563",
"f c #9F7FA0",
"g c #888A86",
"h c #AAACA8",
"j c #C09FC1",
"k c #DBBADC",
"l c #F9F7DA",
/* pixels */
"               9  9             ",
"             X u99u9 9          ",
"            X%Xr9rrr9u          ",
"         X X%1%u*9u**r          ",
"        X%X%1s1rtyyyt7          ",
"       X%11%1111rtt8r%X         ",
"      X%1s111%%%%%11s1X         ",
"      X1111%%ddddd%%11%X        ",
"     X%%11%edddddddd%1%X        ",
"     X111%edddddddddd%%X        ",
"     X%1%eedddddddddde%o        ",
"     X111ooeddddddddddeo    f   ",
"     X%1odd&odddddddddeof  ff   ",
"      X%oewdeoddi$$iddeff fkf   ",
"      X%&oe&deda$O06idflffkkf   ",
"       X&woe&dddpOq0$fllfkkf    ",
"        o&&owedddpOOflljkkkf    ",
"         o&&wweddddflllfkkf     ",
"          o&&wweeefllkfkkf      ",
"          #>>>ooofllkfkkf       ",
"         #><5555fllkf=kf        ",
"        #><g+<5fllkfy=f         ",
"       #><,+3+fllkf@@.          ",
"       #>5.+f3llkf@,@.          ",
"       #<5.4+f3kf;;,,.          ",
"      #><5.,4:f3:+4@.3+         ",
"      #>55-;22:ff3+@.+          ",
"      #>55#---@+++@.            ",
"      #>55##.,4gh,.             ",
"      #>5<##.@,,,.              ",
"       #5<# .,4gg.              ",
"        ##   ....               "
};
