/* XPM */
static char *b88cfdf144c5443fdaac594ddbf023a3sArNOwObnU4Ecama[] = {
/* columns rows colors chars-per-pixel */
"32 32 27 1 ",
"  c None",
". c #030402",
"X c #233B08",
"o c #343B00",
"O c #3A1A3B",
"+ c #252624",
"@ c #323234",
"# c #3F5A1F",
"$ c #525F02",
"% c #764A00",
"& c #5C3C5D",
"* c #444444",
"= c #545456",
"- c #5B7C40",
"; c #7E5E7F",
": c #6D6D6E",
"> c #916600",
", c #81850B",
"< c #93AC3E",
"1 c #C79D00",
"2 c #E3B700",
"3 c #FFD600",
"4 c #FFFC00",
"5 c #81A669",
"6 c #A1C563",
"7 c #9F7FA0",
"8 c #DBBADC",
/* pixels */
"                >               ",
"             >X>3>X>            ",
"             4>111>4            ",
"            X1%4>4%1X           ",
"           X#123%321#X          ",
"          o#->12321>-#o         ",
"         o$#-5>111>5-#$o        ",
"         o,<#-5---5-#<,o        ",
"   7    o$,<##--5--##<,$o    7  ",
"   7oo  o,<<#-#---#-#<<,o  oo7  ",
"   o,<$oo,<<6#-----#6<<,oo$<,o  ",
"   7o,<,o,<<6##-#-##6<<,o,<,o7  ",
"   78o<<o,<<<###-###<<<,o<<o87  ",
"   788o$o,,<<<#####<<<,,o$o887  ",
"   7887oo$,<<<<#<#<<<<,$oo7887  ",
"   7887 o$,,<<<<<<<<<,,$o 7887  ",
"    7887...,,,<<<<<,,,...7887   ",
"    788.+@@.,,,,,,,,,.@@+.887   ",
"    78.+@**@@$,,,,,$@@**@+.87   ",
"    78.@**==*********==**@.87   ",
"     78@*==::=======::==*@87    ",
"     7@***==:::::::::==***@7    ",
"    O&@**=**=:::::::=**=**@&O   ",
"   O;@***===**=====**===***@;O  ",
"    O@***==:*=:::::=*:==***@O   ",
"     @**===:*:::::::*:===**@    ",
"     @**===:=:::::::=:===**@    ",
"     @**==:::::::::::::==**@    ",
"     @**==:::::::::::::==**@    ",
"      @*===:::::::::::===*@     ",
"       @@**==:::::::==**@@      ",
"         @@@*********@@@        "
};
