/* XPM */
static char *ae0aab6c97c047039f2c23ecfd00098aLbYKRKPxxVtoYif8[] = {
/* columns rows colors chars-per-pixel */
"32 32 49 1 ",
"  c None",
". c #030402",
"X c #1D2800",
"o c #2F3900",
"O c #233B08",
"+ c #343B00",
"@ c #2E1E22",
"# c #3A1A3B",
"$ c #252624",
"% c #323234",
"& c #640A0E",
"* c #3F5A1F",
"= c #444A00",
"- c #4B5209",
"; c #525F02",
": c #764A00",
"> c #76590C",
", c #707010",
"< c #1B0F41",
"1 c #253141",
"2 c #5C3C5D",
"3 c #444444",
"4 c #474846",
"5 c #545456",
"6 c #5B7C40",
"7 c #7E5E7F",
"8 c #686967",
"9 c #6D6D6E",
"0 c #971E2A",
"q c #C70000",
"w c #FF2627",
"e c #916600",
"r c #CB3044",
"t c #FF4460",
"y c #81850B",
"u c #93AC3E",
"i c #C79D00",
"p c #E3B700",
"a c #FFD600",
"s c #FFFC00",
"d c #8B8244",
"f c #95A052",
"g c #A1C563",
"h c #9F7FA0",
"j c #888A86",
"k c #AAACA8",
"l c #C09FC1",
"z c #DBBADC",
"x c #F9F7DA",
/* pixels */
"               e e              ",
"             eesesee            ",
"             sei:ies            ",
"            Oi:ese:iO           ",
"           O*ip:a:pi*O          ",
"          +*6iqawaqi6*+         ",
"         +;y*6ipqpi6*y;+        ",
"         +yu*6*666*6*uy+        ",
"        +;yuu**6*6**uuy;+       ",
"  h ++  +yuugg*****gguuy+  ++ h ",
"  hhyu;++yugggg*g*gggguy++;uyhh ",
"  hxhyuy+yuggggggggggguy+yuyhxh ",
"  hxl+;y+yuggggggggggguy+y;+lxh ",
"  hxxh+;+>&&&dgggggd&&&>+;+hxxh ",
"  hxxh ++&@@r0dgggd0r@@&++ hxxh ",
"  hzxh  +-@@tr&fgf&rt@@-+  hxzh ",
"  hzxl  ..,@@@@ggg@@@@,..  lxzh ",
"   hxxh%%%+yuggggggguy+%%%hxxh  ",
"   hxxh3333+;yuuuuuy;+3333hxxh  ",
"   hzxh43595+++++++++59534hxzh  ",
"   hzxl.4459995sas5999544.lxzh  ",
"    hxx###.4599asa9954.###xxh   ",
"    hxx2hh#4884$$$4884#hh2xxh   ",
"   #27hh2#.1$$$484$$$1.#2hh72#  ",
"  #7hh22#..$111444111$..#22hh7# ",
"   ###11<.$48Xo8k8oX84$.<11###  ",
"     %<<%.$84=X484X=48$.%<<%    ",
"     %59%%.$X=o...o=X$.%%95%    ",
"     %99%%%.jk8.%.8kj.%%%99%    ",
"      %9%%%.444.%.444.%%%9%     ",
"       %   .884. .488.   %      ",
"            ...   ...           "
};
